<?xml version="1.0" encoding="UTF-8"?>
<svg xmlns="http://www.w3.org/2000/svg" xmlns:xlink="http://www.w3.org/1999/xlink" width="32px" height="px" viewBox="0 0 32 32" version="1.1">
<g id="surface1">
<path style="fill-rule:nonzero;fill:rgb(100%,100%,100%);fill-opacity:1;stroke-width:1;stroke-linecap:round;stroke-linejoin:round;stroke:rgb(0%,0%,0%);stroke-opacity:1;stroke-miterlimit:4;" d="M 0.5 0.5 L 15.5 0.5 L 15.5 7.5 L 0.5 7.5 Z M 0.5 0.5 " transform="matrix(2,0,0,2,0,0)"/>
<path style="fill:none;stroke-width:1;stroke-linecap:round;stroke-linejoin:round;stroke:rgb(0%,0%,0%);stroke-opacity:1;stroke-miterlimit:4;" d="M 5.5 15.5 L 5.5 9.5 " transform="matrix(2,0,0,2,0,0)"/>
<path style="fill:none;stroke-width:1;stroke-linecap:round;stroke-linejoin:round;stroke:rgb(0%,0%,0%);stroke-opacity:1;stroke-miterlimit:4;" d="M 4 8 L 7 11 L 4 14 " transform="matrix(0.000000000000000122,-2,2,0.000000000000000122,-11,33)"/>
<path style="fill:none;stroke-width:1;stroke-linecap:round;stroke-linejoin:round;stroke:rgb(0%,0%,0%);stroke-opacity:1;stroke-miterlimit:4;" d="M 10.5 0.5 L 10.5 15.5 " transform="matrix(2,0,0,2,0,0)"/>
<path style="fill:none;stroke-width:1;stroke-linecap:round;stroke-linejoin:round;stroke:rgb(0%,0%,0%);stroke-opacity:1;stroke-miterlimit:4;" d="M 15.5 5.5 L 15.5 15.5 " transform="matrix(2,0,0,2,0,0)"/>
<path style="fill:none;stroke-width:1;stroke-linecap:round;stroke-linejoin:round;stroke:rgb(0%,0%,0%);stroke-opacity:1;stroke-miterlimit:4;" d="M 0.5 5.5 L 0.5 15.5 " transform="matrix(2,0,0,2,0,0)"/>
<path style="fill:none;stroke-width:1;stroke-linecap:round;stroke-linejoin:round;stroke:rgb(0%,0%,0%);stroke-opacity:1;stroke-miterlimit:4;" d="M 2.5 3.5 L 2.5 4.5 L 8.5 4.5 " transform="matrix(2,0,0,2,0,0)"/>
</g>
</svg>
