<?xml version="1.0" encoding="UTF-8"?>
<svg xmlns="http://www.w3.org/2000/svg" xmlns:xlink="http://www.w3.org/1999/xlink" width="32px" height="px" viewBox="0 0 32 32" version="1.1">
<g id="surface1">
<path style="fill-rule:nonzero;fill:rgb(100%,100%,100%);fill-opacity:1;stroke-width:1;stroke-linecap:round;stroke-linejoin:round;stroke:rgb(0%,0%,0%);stroke-opacity:1;stroke-miterlimit:4;" d="M 8.699219 7.099609 L 7.5 7.699219 L 7.5 15.195312 L 13.5 12.195312 L 13.5 8 " transform="matrix(2,0,0,2,0,0)"/>
<path style="fill-rule:nonzero;fill:rgb(100%,100%,100%);fill-opacity:1;stroke-width:1;stroke-linecap:round;stroke-linejoin:round;stroke:rgb(0%,0%,0%);stroke-opacity:1;stroke-miterlimit:4;" d="M 1.5 7.699219 L 1.5 15.195312 L 7.5 12.195312 L 7.5 4.695312 Z M 1.5 7.699219 " transform="matrix(-2,0,0,2,18,0)"/>
<path style="fill-rule:nonzero;fill:rgb(100%,100%,100%);fill-opacity:1;stroke-width:1;stroke-linecap:round;stroke-linejoin:round;stroke:rgb(0%,0%,0%);stroke-opacity:1;stroke-miterlimit:4;" d="M 4.83567 0.407746 L 3.716783 1.146496 L 3.318243 7.844601 L 8.912936 4.146496 L 8.930119 3.116734 " transform="matrix(1,-1.732051,-1.732051,-1,13.269005,22.982591)"/>
<path style="fill:none;stroke-width:1;stroke-linecap:round;stroke-linejoin:round;stroke:rgb(0%,0%,0%);stroke-opacity:1;stroke-miterlimit:4;" d="M 12.5 0.5 L 12.5 6.5 " transform="matrix(2,0,0,2,0,0)"/>
<path style="fill:none;stroke-width:1;stroke-linecap:round;stroke-linejoin:round;stroke:rgb(0%,0%,0%);stroke-opacity:1;stroke-miterlimit:4;" d="M 15.5 3.5 L 9.5 3.5 " transform="matrix(2,0,0,2,0,0)"/>
<path style="fill:none;stroke-width:1;stroke-linecap:round;stroke-linejoin:round;stroke:rgb(0%,0%,0%);stroke-opacity:1;stroke-miterlimit:4;" d="M 14.5 1.5 L 15 1 Z M 14.5 1.5 " transform="matrix(2,0,0,2,0,0)"/>
<path style="fill:none;stroke-width:1;stroke-linecap:round;stroke-linejoin:round;stroke:rgb(0%,0%,0%);stroke-opacity:1;stroke-miterlimit:4;" d="M 14.5 5.5 L 15 6 " transform="matrix(2,0,0,2,0,0)"/>
<path style="fill:none;stroke-width:1;stroke-linecap:round;stroke-linejoin:round;stroke:rgb(0%,0%,0%);stroke-opacity:1;stroke-miterlimit:4;" d="M 10.5 5.5 L 10 6 " transform="matrix(2,0,0,2,0,0)"/>
<path style="fill:none;stroke-width:1;stroke-linecap:round;stroke-linejoin:round;stroke:rgb(0%,0%,0%);stroke-opacity:1;stroke-miterlimit:4;" d="M 10.5 1.5 L 10 1 " transform="matrix(2,0,0,2,0,0)"/>
<path style="fill:none;stroke-width:1;stroke-linecap:round;stroke-linejoin:round;stroke:rgb(0%,0%,0%);stroke-opacity:1;stroke-miterlimit:4;" d="M 7.5 7.699219 L 8.736328 7.082031 " transform="matrix(2,0,0,2,0,0)"/>
<path style="fill:none;stroke-width:0.75;stroke-linecap:round;stroke-linejoin:round;stroke:rgb(0%,0%,0%);stroke-opacity:1;stroke-miterlimit:4;" d="M 10.5 9 L 9 12.5 L 12 11 Z M 10.5 9 " transform="matrix(2,0,0,2,0,0)"/>
<path style="fill:none;stroke-width:0.75;stroke-linecap:round;stroke-linejoin:round;stroke:rgb(0%,0%,0%);stroke-opacity:1;stroke-miterlimit:4;" d="M 6 10 C 6 9.171875 5.328125 8.5 4.5 8.5 C 3.671875 8.5 3 9.171875 3 10 C 3 10.828125 3.671875 11.5 4.5 11.5 C 5.328125 11.5 6 10.828125 6 10 Z M 6 10 " transform="matrix(2,0,0,2,0,0)"/>
<path style="fill:none;stroke-width:0.75;stroke-linecap:round;stroke-linejoin:round;stroke:rgb(0%,0%,0%);stroke-opacity:1;stroke-miterlimit:4;" d="M 6 4.5 L 8 4.5 " transform="matrix(2,0,0,2,0,0)"/>
</g>
</svg>
